<svg width="21" height="21" viewBox="0 0 21 21" fill="none" xmlns="http://www.w3.org/2000/svg">
<path d="M20.1667 20.1667L18.25 18.25M10.1042 19.2083C11.2997 19.2083 12.4836 18.9728 13.5882 18.5153C14.6927 18.0578 15.6964 17.3872 16.5418 16.5418C17.3872 15.6964 18.0578 14.6927 18.5153 13.5882C18.9728 12.4836 19.2083 11.2997 19.2083 10.1042C19.2083 8.90859 18.9728 7.72472 18.5153 6.62015C18.0578 5.51558 17.3872 4.51195 16.5418 3.66655C15.6964 2.82115 14.6927 2.15054 13.5882 1.69301C12.4836 1.23549 11.2997 1 10.1042 1C7.68959 1 5.37391 1.95919 3.66655 3.66655C1.95919 5.37391 1 7.68959 1 10.1042C1 12.5187 1.95919 14.8344 3.66655 16.5418C5.37391 18.2491 7.68959 19.2083 10.1042 19.2083V19.2083Z" stroke="white" stroke-width="1.5" stroke-linecap="round" stroke-linejoin="round"/>
</svg>
